<?xml version="1.0" encoding="UTF-8" standalone="no"?>
<!-- Generator: Adobe Illustrator 17.0.1, SVG Export Plug-In . SVG Version: 6.00 Build 0)  -->

<svg
   xmlns:dc="http://purl.org/dc/elements/1.1/"
   xmlns:cc="http://creativecommons.org/ns#"
   xmlns:rdf="http://www.w3.org/1999/02/22-rdf-syntax-ns#"
   xmlns:svg="http://www.w3.org/2000/svg"
   xmlns="http://www.w3.org/2000/svg"
   xmlns:sodipodi="http://sodipodi.sourceforge.net/DTD/sodipodi-0.dtd"
   xmlns:inkscape="http://www.inkscape.org/namespaces/inkscape"
   version="1.1"
   id="Layer_1"
   x="0px"
   y="0px"
   width="185px"
   height="188px"
   viewBox="0 0 185 188"
   enable-background="new 0 0 185 188"
   xml:space="preserve"
   inkscape:version="0.48.5 r10040"
   sodipodi:docname="logos.svg"><metadata
     id="metadata3888"><rdf:RDF><cc:Work
         rdf:about=""><dc:format>image/svg+xml</dc:format><dc:type
           rdf:resource="http://purl.org/dc/dcmitype/StillImage" /></cc:Work></rdf:RDF></metadata><defs
     id="defs3886" /><sodipodi:namedview
     pagecolor="#ffffff"
     bordercolor="#666666"
     borderopacity="1"
     objecttolerance="10"
     gridtolerance="10"
     guidetolerance="10"
     inkscape:pageopacity="0"
     inkscape:pageshadow="2"
     inkscape:window-width="1349"
     inkscape:window-height="743"
     id="namedview3884"
     showgrid="false"
     inkscape:zoom="4.6170213"
     inkscape:cx="337.85723"
     inkscape:cy="219.26676"
     inkscape:window-x="0"
     inkscape:window-y="0"
     inkscape:window-maximized="0"
     inkscape:current-layer="g3656" /><g
     id="g3656"><g
       id="g3696"
       transform="translate(-4.3317971,12.129033)"><path
         d="m 55.571,17.313 h 6.922 v 8.644 c -1.879,0.644 -3.945,0.965 -6.198,0.965 -2.472,0 -4.382,-0.716 -5.731,-2.15 -1.349,-1.433 -2.024,-3.477 -2.024,-6.132 0,-2.589 0.739,-4.603 2.216,-6.044 1.477,-1.44 3.547,-2.161 6.208,-2.161 1.009,0 1.962,0.095 2.858,0.285 0.896,0.19 1.676,0.432 2.342,0.724 l -1.371,3.4 c -1.156,-0.57 -2.424,-0.855 -3.807,-0.855 -1.265,0 -2.243,0.412 -2.934,1.234 -0.691,0.823 -1.037,1.999 -1.037,3.527 0,1.499 0.313,2.642 0.938,3.428 0.625,0.786 1.526,1.179 2.704,1.179 0.644,0 1.236,-0.062 1.777,-0.187 v -2.512 h -2.863 v -3.345 z"
         id="path3698"
         inkscape:connector-curvature="0"
         style="fill:#4e4e4e" /><path
         d="m 78.026,18.344 c 0,2.676 -0.737,4.739 -2.21,6.187 -1.473,1.448 -3.545,2.172 -6.214,2.172 H 64.414 V 10.666 h 5.551 c 2.574,0 4.561,0.658 5.961,1.975 1.4,1.317 2.1,3.217 2.1,5.703 z m -4.497,0.154 c 0,-1.47 -0.291,-2.56 -0.872,-3.269 -0.582,-0.709 -1.464,-1.064 -2.649,-1.064 h -1.262 v 8.983 h 0.965 c 1.316,0 2.282,-0.382 2.896,-1.146 0.614,-0.764 0.922,-1.932 0.922,-3.504 z"
         id="path3700"
         inkscape:connector-curvature="0"
         style="fill:#4e4e4e" /><path
         d="m 85.991,17.313 h 6.922 v 8.644 c -1.879,0.644 -3.945,0.965 -6.198,0.965 -2.472,0 -4.382,-0.716 -5.731,-2.15 -1.349,-1.433 -2.024,-3.477 -2.024,-6.132 0,-2.589 0.739,-4.603 2.216,-6.044 1.477,-1.44 3.547,-2.161 6.208,-2.161 1.009,0 1.962,0.095 2.858,0.285 0.896,0.19 1.676,0.432 2.342,0.724 l -1.371,3.4 c -1.156,-0.57 -2.424,-0.855 -3.807,-0.855 -1.265,0 -2.243,0.412 -2.934,1.234 -0.691,0.823 -1.037,1.999 -1.037,3.527 0,1.499 0.313,2.642 0.938,3.428 0.625,0.786 1.526,1.179 2.704,1.179 0.644,0 1.236,-0.062 1.777,-0.187 v -2.512 h -2.863 v -3.345 z"
         id="path3702"
         inkscape:connector-curvature="0"
         style="fill:#4e4e4e" /></g><radialGradient
       id="SVGID_1_"
       cx="-310.583"
       cy="-60.055"
       r="20.1137"
       gradientTransform="matrix(0.498 0 0 0.498 172.2891 79.7388)"
       gradientUnits="userSpaceOnUse"><stop
         offset="0"
         style="stop-color:#FFCF4F"
         id="stop3705" /><stop
         offset="1"
         style="stop-color:#F4C236"
         id="stop3707" /></radialGradient><path
       fill="url(#SVGID_1_)"
       d="M8.91,61h6.791c1.607,0,3.604-1.128,4.432-2.511l5.72-9.519c0.677-1.396,0.653-3.426-0.119-4.713   l-3.378-5.592L8.91,61z"
       id="path3709" /><radialGradient
       id="SVGID_2_"
       cx="-322.6347"
       cy="-70.2695"
       r="27.6582"
       gradientTransform="matrix(0.498 0 0 0.498 172.2891 79.7388)"
       gradientUnits="userSpaceOnUse"><stop
         offset="0"
         style="stop-color:#08A960"
         id="stop3712" /><stop
         offset="1"
         style="stop-color:#07914B"
         id="stop3714" /></radialGradient><path
       fill="url(#SVGID_2_)"
       d="M16.209,33.514L1.108,58.763C0.524,60.011,1.131,61,2.629,61H8.91l13.446-22.335l-6.146-10.173   C17.039,29.87,17.039,32.13,16.209,33.514"
       id="path3716" /><radialGradient
       id="SVGID_3_"
       cx="-313.1831"
       cy="-109.9511"
       r="40.54"
       gradientTransform="matrix(0.498 0 0 0.498 172.2891 79.7388)"
       gradientUnits="userSpaceOnUse"><stop
         offset="0"
         style="stop-color:#567FC0"
         id="stop3719" /><stop
         offset="1"
         style="stop-color:#557FC0"
         id="stop3721" /></radialGradient><path
       fill="url(#SVGID_3_)"
       d="M2.629,1C1.015,1,0.375,2.133,1.205,3.511l24.529,40.745c0.772,1.288,0.795,3.317,0.119,4.713   l5.963-9.925L8.914,1H2.629z"
       id="path3723" /><radialGradient
       id="SVGID_4_"
       cx="-301.1191"
       cy="-119.9164"
       r="33.0584"
       gradientTransform="matrix(0.498 0 0 0.498 172.2891 79.7388)"
       gradientUnits="userSpaceOnUse"><stop
         offset="0"
         style="stop-color:#E14C40"
         id="stop3726" /><stop
         offset="1"
         style="stop-color:#CD392D"
         id="stop3728" /></radialGradient><path
       fill="url(#SVGID_4_)"
       d="M8.914,1l22.903,38.045l3.321-5.53c0.83-1.385,0.83-3.645,0-5.023L20.133,3.511   C19.305,2.133,17.308,1,15.701,1H8.914z"
       id="path3730" /><text
       xml:space="preserve"
       style="font-size:40px;font-style:normal;font-weight:normal;line-height:125%;letter-spacing:0px;word-spacing:0px;fill:#000000;fill-opacity:1;stroke:none;font-family:Sans"
       x="91.400925"
       y="38.552994"
       id="text4030"
       sodipodi:linespacing="125%"><tspan
         sodipodi:role="line"
         id="tspan4032"
         x="91.400925"
         y="38.552994"
         style="font-size:22px;font-style:normal;font-variant:normal;font-weight:bold;font-stretch:normal;text-align:start;line-height:125%;writing-mode:lr-tb;text-anchor:start;fill:#4d4d4d;font-family:Arial;-inkscape-font-specification:Arial Bold">COCHIN</tspan></text>
<text
       sodipodi:linespacing="125%"
       id="text4036"
       y="102.01382"
       x="89.668205"
       style="font-size:40px;font-style:normal;font-weight:normal;line-height:125%;letter-spacing:0px;word-spacing:0px;fill:#000000;fill-opacity:1;stroke:none;font-family:Sans"
       xml:space="preserve"><tspan
         style="font-size:22px;font-style:normal;font-variant:normal;font-weight:bold;font-stretch:normal;text-align:start;line-height:125%;writing-mode:lr-tb;text-anchor:start;fill:#4d4d4d;font-family:Arial;-inkscape-font-specification:Arial Bold"
         y="102.01382"
         x="89.668205"
         id="tspan4038"
         sodipodi:role="line">COCHIN</tspan></text>
<text
       xml:space="preserve"
       style="font-size:40px;font-style:normal;font-weight:normal;line-height:125%;letter-spacing:0px;word-spacing:0px;fill:#000000;fill-opacity:1;stroke:none;font-family:Sans"
       x="91.617516"
       y="164.17511"
       id="text4040"
       sodipodi:linespacing="125%"><tspan
         sodipodi:role="line"
         id="tspan4042"
         x="91.617516"
         y="164.17511"
         style="font-size:22px;font-style:normal;font-variant:normal;font-weight:bold;font-stretch:normal;text-align:start;line-height:125%;writing-mode:lr-tb;text-anchor:start;fill:#e6e6e6;font-family:Arial;-inkscape-font-specification:Arial Bold">COCHIN</tspan></text>
</g><g
     id="g3732"><g
       id="g3772"
       transform="translate(-5.6313364,12.345622)"><path
         d="m 55.571,80.313 h 6.922 v 8.644 c -1.879,0.644 -3.945,0.966 -6.198,0.966 -2.472,0 -4.382,-0.717 -5.731,-2.15 -1.349,-1.433 -2.024,-3.477 -2.024,-6.132 0,-2.589 0.739,-4.603 2.216,-6.044 1.477,-1.44 3.547,-2.161 6.208,-2.161 1.009,0 1.962,0.096 2.858,0.285 0.896,0.19 1.676,0.432 2.342,0.725 l -1.371,3.4 c -1.156,-0.57 -2.424,-0.855 -3.807,-0.855 -1.265,0 -2.243,0.411 -2.934,1.233 -0.691,0.823 -1.037,1.999 -1.037,3.527 0,1.499 0.313,2.642 0.938,3.428 0.625,0.786 1.526,1.179 2.704,1.179 0.644,0 1.236,-0.062 1.777,-0.187 v -2.512 h -2.863 v -3.346 z"
         id="path3774"
         inkscape:connector-curvature="0"
         style="fill:#4e4e4e" /><path
         d="m 78.026,81.344 c 0,2.677 -0.737,4.739 -2.21,6.187 -1.474,1.448 -3.545,2.172 -6.214,2.172 H 64.414 V 73.665 h 5.551 c 2.574,0 4.561,0.658 5.961,1.975 1.4,1.317 2.1,3.217 2.1,5.704 z m -4.497,0.153 c 0,-1.47 -0.291,-2.56 -0.872,-3.269 -0.581,-0.709 -1.464,-1.063 -2.649,-1.063 h -1.262 v 8.983 h 0.965 c 1.316,0 2.282,-0.382 2.896,-1.146 0.615,-0.764 0.922,-1.933 0.922,-3.505 z"
         id="path3776"
         inkscape:connector-curvature="0"
         style="fill:#4e4e4e" /><path
         d="m 85.991,80.313 h 6.922 v 8.644 c -1.879,0.644 -3.945,0.966 -6.198,0.966 -2.472,0 -4.382,-0.717 -5.731,-2.15 -1.349,-1.433 -2.024,-3.477 -2.024,-6.132 0,-2.589 0.739,-4.603 2.216,-6.044 1.477,-1.44 3.547,-2.161 6.208,-2.161 1.009,0 1.962,0.096 2.858,0.285 0.896,0.19 1.676,0.432 2.342,0.725 l -1.371,3.4 c -1.156,-0.57 -2.424,-0.855 -3.807,-0.855 -1.265,0 -2.243,0.411 -2.934,1.233 -0.691,0.823 -1.037,1.999 -1.037,3.527 0,1.499 0.313,2.642 0.938,3.428 0.625,0.786 1.526,1.179 2.704,1.179 0.644,0 1.236,-0.062 1.777,-0.187 v -2.512 h -2.863 v -3.346 z"
         id="path3778"
         inkscape:connector-curvature="0"
         style="fill:#4e4e4e" /></g><radialGradient
       id="SVGID_5_"
       cx="-310.583"
       cy="66.4552"
       r="20.1137"
       gradientTransform="matrix(0.498 0 0 0.498 172.2891 79.7388)"
       gradientUnits="userSpaceOnUse"><stop
         offset="0"
         style="stop-color:#CCCCCC"
         id="stop3781" /><stop
         offset="1"
         style="stop-color:#C0C0C0"
         id="stop3783" /></radialGradient><path
       fill="url(#SVGID_5_)"
       d="M8.91,124h6.791c1.607,0,3.604-1.128,4.432-2.511l5.72-9.519c0.677-1.396,0.653-3.426-0.119-4.713   l-3.378-5.592L8.91,124z"
       id="path3785" /><radialGradient
       id="SVGID_6_"
       cx="-322.6347"
       cy="56.2407"
       r="27.6582"
       gradientTransform="matrix(0.498 0 0 0.498 172.2891 79.7388)"
       gradientUnits="userSpaceOnUse"><stop
         offset="0"
         style="stop-color:#A0A0A0"
         id="stop3788" /><stop
         offset="1"
         style="stop-color:#7B7B7B"
         id="stop3790" /></radialGradient><path
       fill="url(#SVGID_6_)"
       d="M16.209,96.514L1.108,121.763C0.524,123.011,1.131,124,2.629,124H8.91l13.446-22.335l-6.146-10.173   C17.039,92.87,17.039,95.13,16.209,96.514"
       id="path3792" /><radialGradient
       id="SVGID_7_"
       cx="-313.1831"
       cy="16.559"
       r="40.54"
       gradientTransform="matrix(0.498 0 0 0.498 172.2891 79.7388)"
       gradientUnits="userSpaceOnUse"><stop
         offset="0"
         style="stop-color:#848484"
         id="stop3795" /><stop
         offset="1"
         style="stop-color:#838383"
         id="stop3797" /></radialGradient><path
       fill="url(#SVGID_7_)"
       d="M2.629,64c-1.613,0-2.254,1.133-1.424,2.511l24.529,40.745c0.772,1.288,0.795,3.317,0.119,4.713   l5.963-9.925L8.914,64H2.629z"
       id="path3799" /><radialGradient
       id="SVGID_8_"
       cx="-301.1191"
       cy="6.5938"
       r="33.0584"
       gradientTransform="matrix(0.498 0 0 0.498 172.2891 79.7388)"
       gradientUnits="userSpaceOnUse"><stop
         offset="0"
         style="stop-color:#626262"
         id="stop3802" /><stop
         offset="1"
         style="stop-color:#474747"
         id="stop3804" /></radialGradient><path
       fill="url(#SVGID_8_)"
       d="M8.914,64l22.903,38.045l3.321-5.53c0.83-1.385,0.83-3.645,0-5.023l-15.004-24.98   C19.305,65.133,17.308,64,15.701,64H8.914z"
       id="path3806" /></g><g
     id="g3808"><g
       id="g3848"
       transform="translate(-5.8479263,11.912442)"><path
         d="m 55.729,143.313 h 6.922 v 8.644 c -1.879,0.644 -3.945,0.966 -6.198,0.966 -2.472,0 -4.382,-0.717 -5.731,-2.15 -1.349,-1.433 -2.024,-3.478 -2.024,-6.132 0,-2.589 0.739,-4.604 2.216,-6.044 1.477,-1.44 3.547,-2.161 6.208,-2.161 1.009,0 1.962,0.096 2.858,0.285 0.896,0.19 1.676,0.432 2.342,0.725 l -1.371,3.4 c -1.156,-0.57 -2.424,-0.855 -3.807,-0.855 -1.265,0 -2.243,0.411 -2.934,1.233 -0.691,0.823 -1.037,1.998 -1.037,3.526 0,1.5 0.313,2.643 0.938,3.429 0.625,0.786 1.526,1.179 2.704,1.179 0.644,0 1.236,-0.062 1.777,-0.187 v -2.512 h -2.863 v -3.346 z"
         id="path3850"
         inkscape:connector-curvature="0"
         style="fill:#e6e6e5" /><path
         d="m 78.185,144.345 c 0,2.677 -0.737,4.738 -2.21,6.187 -1.473,1.449 -3.545,2.172 -6.214,2.172 h -5.188 v -16.037 h 5.551 c 2.574,0 4.561,0.658 5.961,1.975 1.4,1.317 2.1,3.216 2.1,5.703 z m -4.497,0.153 c 0,-1.47 -0.291,-2.56 -0.872,-3.269 -0.581,-0.709 -1.464,-1.064 -2.649,-1.064 h -1.262 v 8.984 h 0.965 c 1.316,0 2.282,-0.383 2.896,-1.146 0.614,-0.765 0.922,-1.933 0.922,-3.505 z"
         id="path3852"
         inkscape:connector-curvature="0"
         style="fill:#e6e6e5" /><path
         d="m 86.15,143.313 h 6.922 v 8.644 c -1.879,0.644 -3.945,0.966 -6.198,0.966 -2.472,0 -4.382,-0.717 -5.731,-2.15 -1.349,-1.433 -2.024,-3.478 -2.024,-6.132 0,-2.589 0.739,-4.604 2.216,-6.044 1.477,-1.44 3.547,-2.161 6.208,-2.161 1.009,0 1.962,0.096 2.858,0.285 0.896,0.19 1.676,0.432 2.342,0.725 l -1.371,3.4 c -1.156,-0.57 -2.424,-0.855 -3.807,-0.855 -1.265,0 -2.243,0.411 -2.934,1.233 -0.691,0.823 -1.037,1.998 -1.037,3.526 0,1.5 0.313,2.643 0.938,3.429 0.625,0.786 1.526,1.179 2.704,1.179 0.644,0 1.236,-0.062 1.777,-0.187 v -2.512 H 86.15 v -3.346 z"
         id="path3854"
         inkscape:connector-curvature="0"
         style="fill:#e6e6e5" /></g><radialGradient
       id="SVGID_9_"
       cx="-310.265"
       cy="192.9653"
       r="20.1137"
       gradientTransform="matrix(0.498 0 0 0.498 172.2891 79.7388)"
       gradientUnits="userSpaceOnUse"><stop
         offset="0"
         style="stop-color:#FFCF4F"
         id="stop3857" /><stop
         offset="1"
         style="stop-color:#F4C236"
         id="stop3859" /></radialGradient><path
       fill="url(#SVGID_9_)"
       d="M9.068,187h6.791c1.607,0,3.604-1.128,4.432-2.511l5.72-9.519c0.677-1.396,0.653-3.426-0.119-4.713   l-3.378-5.592L9.068,187z"
       id="path3861" /><radialGradient
       id="SVGID_10_"
       cx="-322.3167"
       cy="182.7508"
       r="27.6582"
       gradientTransform="matrix(0.498 0 0 0.498 172.2891 79.7388)"
       gradientUnits="userSpaceOnUse"><stop
         offset="0"
         style="stop-color:#08A960"
         id="stop3864" /><stop
         offset="1"
         style="stop-color:#07914B"
         id="stop3866" /></radialGradient><path
       fill="url(#SVGID_10_)"
       d="M16.368,159.514L1.266,184.763C0.683,186.011,1.289,187,2.787,187h6.281l13.446-22.335   l-6.146-10.173C17.197,155.87,17.197,158.13,16.368,159.514"
       id="path3868" /><radialGradient
       id="SVGID_11_"
       cx="-312.8651"
       cy="143.0691"
       r="40.54"
       gradientTransform="matrix(0.498 0 0 0.498 172.2891 79.7388)"
       gradientUnits="userSpaceOnUse"><stop
         offset="0"
         style="stop-color:#567FC0"
         id="stop3871" /><stop
         offset="1"
         style="stop-color:#557FC0"
         id="stop3873" /></radialGradient><path
       fill="url(#SVGID_11_)"
       d="M2.787,127c-1.613,0-2.254,1.133-1.424,2.511l24.529,40.745c0.772,1.288,0.795,3.317,0.119,4.713   l5.963-9.925L9.072,127H2.787z"
       id="path3875" /><radialGradient
       id="SVGID_12_"
       cx="-300.8011"
       cy="133.1039"
       r="33.0584"
       gradientTransform="matrix(0.498 0 0 0.498 172.2891 79.7388)"
       gradientUnits="userSpaceOnUse"><stop
         offset="0"
         style="stop-color:#E14C40"
         id="stop3878" /><stop
         offset="1"
         style="stop-color:#CD392D"
         id="stop3880" /></radialGradient><path
       fill="url(#SVGID_12_)"
       d="M9.072,127l22.903,38.045l3.321-5.53c0.83-1.385,0.83-3.645,0-5.023l-15.004-24.981   C19.463,128.133,17.467,127,15.86,127H9.072z"
       id="path3882" /></g></svg>